<svg width="512" height="512" viewBox="0 0 512 512" fill="none" xmlns="http://www.w3.org/2000/svg">
  <defs>
    <linearGradient id="bg" x1="64" y1="48" x2="448" y2="464" gradientUnits="userSpaceOnUse">
      <stop stop-color="#171E27"/>
      <stop offset="1" stop-color="#090D12"/>
    </linearGradient>
    <linearGradient id="pane" x1="0" y1="0" x2="1" y2="1">
      <stop stop-color="#111720"/>
      <stop offset="1" stop-color="#0A1017"/>
    </linearGradient>
    <linearGradient id="active" x1="121" y1="121" x2="228" y2="228" gradientUnits="userSpaceOnUse">
      <stop stop-color="#D6FF58"/>
      <stop offset="1" stop-color="#74E34B"/>
    </linearGradient>
    <filter id="glow" x="80" y="80" width="200" height="200" filterUnits="userSpaceOnUse" color-interpolation-filters="sRGB">
      <feGaussianBlur stdDeviation="16"/>
    </filter>
  </defs>

  <rect x="24" y="24" width="464" height="464" rx="108" fill="url(#bg)"/>
  <rect x="24" y="24" width="464" height="464" rx="108" stroke="#25303D" stroke-width="2"/>

  <g opacity="0.95">
    <rect x="88" y="88" width="336" height="336" rx="48" fill="#0A0F15" stroke="#2C3743" stroke-width="2"/>

    <rect x="112" y="112" width="136" height="136" rx="28" fill="#9BFF53" opacity="0.18" filter="url(#glow)"/>
    <rect x="112" y="112" width="136" height="136" rx="28" fill="url(#active)"/>
    <rect x="264" y="112" width="136" height="136" rx="28" fill="url(#pane)" stroke="#24303B" stroke-width="2"/>
    <rect x="112" y="264" width="136" height="136" rx="28" fill="url(#pane)" stroke="#24303B" stroke-width="2"/>
    <rect x="264" y="264" width="136" height="136" rx="28" fill="url(#pane)" stroke="#24303B" stroke-width="2"/>

    <path d="M256 124V388" stroke="#33404C" stroke-width="8" stroke-linecap="round"/>
    <path d="M124 256H388" stroke="#33404C" stroke-width="8" stroke-linecap="round"/>

    <circle cx="144" cy="144" r="7" fill="#0A0F14" opacity="0.8"/>
    <path d="M138 176H186" stroke="#0A0F14" stroke-width="10" stroke-linecap="round" opacity="0.8"/>
    <path d="M144 201H208" stroke="#0A0F14" stroke-width="10" stroke-linecap="round" opacity="0.62"/>

    <circle cx="292" cy="144" r="6" fill="#6A798D" opacity="0.58"/>
    <path d="M286 174H334" stroke="#738295" stroke-width="8" stroke-linecap="round" opacity="0.58"/>

    <circle cx="140" cy="291" r="6" fill="#627184" opacity="0.5"/>
    <path d="M134 321H192" stroke="#708093" stroke-width="8" stroke-linecap="round" opacity="0.52"/>

    <circle cx="292" cy="291" r="6" fill="#6A798D" opacity="0.66"/>
    <path d="M286 321H366" stroke="#738295" stroke-width="8" stroke-linecap="round" opacity="0.66"/>
    <path d="M286 346H338" stroke="#738295" stroke-width="8" stroke-linecap="round" opacity="0.44"/>
  </g>
</svg>
